M48
; DRILL file {KiCad (6.0.10-0)} date 2023 January 25, Wednesday 15:44:35
; FORMAT={-:-/ absolute / metric / decimal}
; #@! TF.CreationDate,2023-01-25T15:44:35+01:00
; #@! TF.GenerationSoftware,Kicad,Pcbnew,(6.0.10-0)
; #@! TF.FileFunction,MixedPlating,1,2
FMAT,2
METRIC
; #@! TA.AperFunction,Plated,PTH,ComponentDrill
T1C0.800
; #@! TA.AperFunction,Plated,PTH,ComponentDrill
T2C1.000
; #@! TA.AperFunction,Plated,PTH,ComponentDrill
T3C1.190
; #@! TA.AperFunction,Plated,PTH,ComponentDrill
T4C1.300
; #@! TA.AperFunction,Plated,PTH,ComponentDrill
T5C3.200
%
G90
G05
T1
X15.945Y-18.351
X15.945Y-20.891
X15.945Y-23.431
X15.945Y-25.971
X15.945Y-28.511
X15.945Y-31.051
X15.945Y-33.591
X15.945Y-36.131
X18.52Y-42.496
X18.52Y-57.736
X23.565Y-18.351
X23.565Y-20.891
X23.565Y-23.431
X23.565Y-25.971
X23.565Y-28.511
X23.565Y-31.051
X23.565Y-33.591
X23.565Y-36.131
X33.76Y-41.226
X38.46Y-41.226
T2
X10.9Y-10.746
X10.9Y-13.286
X10.9Y-15.826
X10.9Y-18.366
X10.9Y-20.906
X10.9Y-23.446
X10.9Y-25.986
X10.9Y-28.526
X10.9Y-31.066
X10.9Y-33.606
X10.9Y-36.146
X10.9Y-38.686
X10.9Y-41.226
X10.9Y-43.766
X10.9Y-46.306
X10.9Y-48.846
X10.9Y-51.386
X10.9Y-53.926
X10.9Y-56.466
X10.9Y-59.006
X28.68Y-10.746
X28.68Y-13.286
X28.68Y-15.826
X28.68Y-18.366
X28.68Y-20.906
X28.68Y-23.446
X28.68Y-25.986
X28.68Y-28.526
X28.68Y-31.066
X28.68Y-33.606
X28.68Y-36.146
X28.68Y-38.686
X28.68Y-41.226
X28.68Y-43.766
X28.68Y-46.306
X28.68Y-48.846
X28.68Y-51.386
X28.68Y-53.926
X28.68Y-56.466
X28.68Y-59.006
X33.76Y-46.306
X33.76Y-48.846
X33.76Y-51.386
X33.76Y-53.926
X33.76Y-56.466
X33.76Y-59.006
T3
X4.53Y-31.066
X4.53Y-33.606
X4.53Y-36.146
X4.53Y-38.686
T4
X36.3Y-12.016
X36.3Y-17.096
T5
X4.55Y-4.396
X4.55Y-64.086
X38.84Y-4.396
X38.84Y-64.086
T1
G00X38.36Y-22.726
M15
G01X38.56Y-22.726
M16
G05
G00X38.36Y-29.726
M15
G01X38.56Y-29.726
M16
G05
T0
M30
