%TF.GenerationSoftware,KiCad,Pcbnew,(6.0.10-0)*%
%TF.CreationDate,2023-01-25T15:44:30+01:00*%
%TF.ProjectId,cozy-extrude,636f7a79-2d65-4787-9472-7564652e6b69,rev?*%
%TF.SameCoordinates,Original*%
%TF.FileFunction,Copper,L2,Bot*%
%TF.FilePolarity,Positive*%
%FSLAX46Y46*%
G04 Gerber Fmt 4.6, Leading zero omitted, Abs format (unit mm)*
G04 Created by KiCad (PCBNEW (6.0.10-0)) date 2023-01-25 15:44:30*
%MOMM*%
%LPD*%
G01*
G04 APERTURE LIST*
G04 Aperture macros list*
%AMRoundRect*
0 Rectangle with rounded corners*
0 $1 Rounding radius*
0 $2 $3 $4 $5 $6 $7 $8 $9 X,Y pos of 4 corners*
0 Add a 4 corners polygon primitive as box body*
4,1,4,$2,$3,$4,$5,$6,$7,$8,$9,$2,$3,0*
0 Add four circle primitives for the rounded corners*
1,1,$1+$1,$2,$3*
1,1,$1+$1,$4,$5*
1,1,$1+$1,$6,$7*
1,1,$1+$1,$8,$9*
0 Add four rect primitives between the rounded corners*
20,1,$1+$1,$2,$3,$4,$5,0*
20,1,$1+$1,$4,$5,$6,$7,0*
20,1,$1+$1,$6,$7,$8,$9,0*
20,1,$1+$1,$8,$9,$2,$3,0*%
G04 Aperture macros list end*
%TA.AperFunction,ComponentPad*%
%ADD10C,6.400000*%
%TD*%
%TA.AperFunction,ComponentPad*%
%ADD11R,1.700000X1.700000*%
%TD*%
%TA.AperFunction,ComponentPad*%
%ADD12O,1.700000X1.700000*%
%TD*%
%TA.AperFunction,ComponentPad*%
%ADD13C,1.700000*%
%TD*%
%TA.AperFunction,ComponentPad*%
%ADD14C,1.800000*%
%TD*%
%TA.AperFunction,ComponentPad*%
%ADD15R,2.600000X2.600000*%
%TD*%
%TA.AperFunction,ComponentPad*%
%ADD16C,2.600000*%
%TD*%
%TA.AperFunction,ComponentPad*%
%ADD17RoundRect,0.250000X-0.845000X0.620000X-0.845000X-0.620000X0.845000X-0.620000X0.845000X0.620000X0*%
%TD*%
%TA.AperFunction,ComponentPad*%
%ADD18O,2.190000X1.740000*%
%TD*%
%TA.AperFunction,ComponentPad*%
%ADD19R,1.600000X1.600000*%
%TD*%
%TA.AperFunction,ComponentPad*%
%ADD20O,1.600000X1.600000*%
%TD*%
%TA.AperFunction,ComponentPad*%
%ADD21C,1.600000*%
%TD*%
%TA.AperFunction,Conductor*%
%ADD22C,2.000000*%
%TD*%
%TA.AperFunction,Conductor*%
%ADD23C,1.000000*%
%TD*%
G04 APERTURE END LIST*
D10*
%TO.P,REF\u002A\u002A,1*%
%TO.N,N/C*%
X4550000Y-64085923D03*
%TD*%
%TO.P,REF\u002A\u002A,1*%
%TO.N,N/C*%
X38840000Y-64085923D03*
%TD*%
%TO.P,REF\u002A\u002A,1*%
%TO.N,N/C*%
X4550000Y-4395923D03*
%TD*%
%TO.P,REF\u002A\u002A,1*%
%TO.N,N/C*%
X38840000Y-4395923D03*
%TD*%
D11*
%TO.P,J1,1,GP0*%
%TO.N,unconnected-(J1-Pad1)*%
X10900000Y-10745923D03*
D12*
%TO.P,J1,2,GP1*%
%TO.N,unconnected-(J1-Pad2)*%
X10900000Y-13285923D03*
%TO.P,J1,3,GND*%
%TO.N,GND*%
X10900000Y-15825923D03*
%TO.P,J1,4,GP2*%
%TO.N,/PWM*%
X10900000Y-18365923D03*
%TO.P,J1,5,GP3*%
%TO.N,unconnected-(J1-Pad5)*%
X10900000Y-20905923D03*
%TO.P,J1,6,GP4*%
%TO.N,unconnected-(J1-Pad6)*%
X10900000Y-23445923D03*
%TO.P,J1,7,GP5*%
%TO.N,unconnected-(J1-Pad7)*%
X10900000Y-25985923D03*
%TO.P,J1,8,GND*%
%TO.N,unconnected-(J1-Pad8)*%
X10900000Y-28525923D03*
%TO.P,J1,9,GP6*%
%TO.N,unconnected-(J1-Pad9)*%
X10900000Y-31065923D03*
%TO.P,J1,10,GP7*%
%TO.N,unconnected-(J1-Pad10)*%
X10900000Y-33605923D03*
%TO.P,J1,11,GP8*%
%TO.N,unconnected-(J1-Pad11)*%
X10900000Y-36145923D03*
%TO.P,J1,12,GP9*%
%TO.N,unconnected-(J1-Pad12)*%
X10900000Y-38685923D03*
%TO.P,J1,13,GND*%
%TO.N,unconnected-(J1-Pad13)*%
X10900000Y-41225923D03*
%TO.P,J1,14,GP10*%
%TO.N,unconnected-(J1-Pad14)*%
X10900000Y-43765923D03*
%TO.P,J1,15,GP11*%
%TO.N,unconnected-(J1-Pad15)*%
X10900000Y-46305923D03*
%TO.P,J1,16,GP12*%
%TO.N,unconnected-(J1-Pad16)*%
X10900000Y-48845923D03*
%TO.P,J1,17,GP13*%
%TO.N,unconnected-(J1-Pad17)*%
X10900000Y-51385923D03*
%TO.P,J1,18,GND*%
%TO.N,unconnected-(J1-Pad18)*%
X10900000Y-53925923D03*
%TO.P,J1,19,GP14*%
%TO.N,unconnected-(J1-Pad19)*%
X10900000Y-56465923D03*
%TO.P,J1,20,GP15*%
%TO.N,/TACH*%
X10900000Y-59005923D03*
%TO.P,J1,21,GP16*%
%TO.N,/SDO*%
X28680000Y-59005923D03*
%TO.P,J1,22,GP17*%
%TO.N,/CSB*%
X28680000Y-56465923D03*
%TO.P,J1,23,GND*%
%TO.N,GND*%
X28680000Y-53925923D03*
%TO.P,J1,24,GP18*%
%TO.N,/SCL*%
X28680000Y-51385923D03*
%TO.P,J1,25,GP19*%
%TO.N,/SDA*%
X28680000Y-48845923D03*
%TO.P,J1,26,GP20*%
%TO.N,unconnected-(J1-Pad26)*%
X28680000Y-46305923D03*
%TO.P,J1,27,GP21*%
%TO.N,unconnected-(J1-Pad27)*%
X28680000Y-43765923D03*
%TO.P,J1,28,GND*%
%TO.N,unconnected-(J1-Pad28)*%
X28680000Y-41225923D03*
%TO.P,J1,29,GP22*%
%TO.N,/HEATER_EN*%
X28680000Y-38685923D03*
%TO.P,J1,30,RUN*%
%TO.N,unconnected-(J1-Pad30)*%
X28680000Y-36145923D03*
%TO.P,J1,31,GP26*%
%TO.N,unconnected-(J1-Pad31)*%
X28680000Y-33605923D03*
%TO.P,J1,32,GP27*%
%TO.N,unconnected-(J1-Pad32)*%
X28680000Y-31065923D03*
%TO.P,J1,33,GND*%
%TO.N,unconnected-(J1-Pad33)*%
X28680000Y-28525923D03*
%TO.P,J1,34,GP28*%
%TO.N,unconnected-(J1-Pad34)*%
X28680000Y-25985923D03*
%TO.P,J1,35,ADC_VREF*%
%TO.N,unconnected-(J1-Pad35)*%
X28680000Y-23445923D03*
%TO.P,J1,36,3V3(OUT)*%
%TO.N,+3V3*%
X28680000Y-20905923D03*
%TO.P,J1,37,3V3_EN*%
%TO.N,unconnected-(J1-Pad37)*%
X28680000Y-18365923D03*
%TO.P,J1,38,GND*%
%TO.N,GND*%
X28680000Y-15825923D03*
%TO.P,J1,39,VSYS*%
%TO.N,unconnected-(J1-Pad39)*%
X28680000Y-13285923D03*
D13*
%TO.P,J1,40,VBUS*%
%TO.N,VBUS*%
X28680000Y-10745923D03*
%TD*%
%TO.P,K1,1*%
%TO.N,Net-(K1-Pad1)*%
X33760000Y-41225923D03*
%TO.P,K1,2*%
%TO.N,+3V3*%
X38460000Y-41225923D03*
D14*
%TO.P,K1,3*%
%TO.N,Net-(K1-Pad3)*%
X38460000Y-29725923D03*
%TO.P,K1,4*%
%TO.N,Net-(K1-Pad4)*%
X38460000Y-22725923D03*
%TD*%
D15*
%TO.P,J4,1,Pin_1*%
%TO.N,Net-(K1-Pad4)*%
X36300014Y-17096021D03*
D16*
%TO.P,J4,2,Pin_2*%
%TO.N,Net-(K1-Pad3)*%
X36300014Y-12016021D03*
%TD*%
D17*
%TO.P,J3,1,Pin_1*%
%TO.N,GND*%
X4530000Y-31065923D03*
D18*
%TO.P,J3,2,Pin_2*%
%TO.N,VBUS*%
X4530000Y-33605923D03*
%TO.P,J3,3,Pin_3*%
%TO.N,/TACH*%
X4530000Y-36145923D03*
%TO.P,J3,4,Pin_4*%
%TO.N,/PWM*%
X4530000Y-38685923D03*
%TD*%
D11*
%TO.P,J2,1,Pin_1*%
%TO.N,GND*%
X33760000Y-59005923D03*
D12*
%TO.P,J2,2,Pin_2*%
%TO.N,+3V3*%
X33760000Y-56465923D03*
%TO.P,J2,3,Pin_3*%
%TO.N,/SDO*%
X33760000Y-53925923D03*
%TO.P,J2,4,Pin_4*%
%TO.N,/CSB*%
X33760000Y-51385923D03*
%TO.P,J2,5,Pin_5*%
%TO.N,/SCL*%
X33760000Y-48845923D03*
%TO.P,J2,6,Pin_6*%
%TO.N,/SDA*%
X33760000Y-46305923D03*
%TD*%
D19*
%TO.P,U1,1,I1*%
%TO.N,/HEATER_EN*%
X23565000Y-36130923D03*
D20*
%TO.P,U1,2,I2*%
%TO.N,unconnected-(U1-Pad2)*%
X23565000Y-33590923D03*
%TO.P,U1,3,I3*%
%TO.N,unconnected-(U1-Pad3)*%
X23565000Y-31050923D03*
%TO.P,U1,4,I4*%
%TO.N,unconnected-(U1-Pad4)*%
X23565000Y-28510923D03*
%TO.P,U1,5,I5*%
%TO.N,unconnected-(U1-Pad5)*%
X23565000Y-25970923D03*
%TO.P,U1,6,I6*%
%TO.N,unconnected-(U1-Pad6)*%
X23565000Y-23430923D03*
%TO.P,U1,7,I7*%
%TO.N,unconnected-(U1-Pad7)*%
X23565000Y-20890923D03*
%TO.P,U1,8,GND*%
%TO.N,GND*%
X23565000Y-18350923D03*
%TO.P,U1,9,COM*%
%TO.N,+3V3*%
X15945000Y-18350923D03*
%TO.P,U1,10,O7*%
%TO.N,unconnected-(U1-Pad10)*%
X15945000Y-20890923D03*
%TO.P,U1,11,O6*%
%TO.N,unconnected-(U1-Pad11)*%
X15945000Y-23430923D03*
%TO.P,U1,12,O5*%
%TO.N,unconnected-(U1-Pad12)*%
X15945000Y-25970923D03*
%TO.P,U1,13,O4*%
%TO.N,unconnected-(U1-Pad13)*%
X15945000Y-28510923D03*
%TO.P,U1,14,O3*%
%TO.N,unconnected-(U1-Pad14)*%
X15945000Y-31050923D03*
%TO.P,U1,15,O2*%
%TO.N,unconnected-(U1-Pad15)*%
X15945000Y-33590923D03*
%TO.P,U1,16,O1*%
%TO.N,Net-(K1-Pad1)*%
X15945000Y-36130923D03*
%TD*%
D21*
%TO.P,R1,1*%
%TO.N,/TACH*%
X18520000Y-57735923D03*
D20*
%TO.P,R1,2*%
%TO.N,+3V3*%
X18520000Y-42495923D03*
%TD*%
D22*
%TO.N,Net-(K1-Pad4)*%
X38460000Y-22725923D02*
X38460000Y-19256007D01*
X38460000Y-19256007D02*
X36300014Y-17096021D01*
%TO.N,Net-(K1-Pad3)*%
X38460000Y-29725923D02*
X33760000Y-25025923D01*
X33760000Y-25025923D02*
X33760000Y-20905923D01*
X33760000Y-20905923D02*
X32490000Y-19635923D01*
X32490000Y-14555923D02*
X35030000Y-12015923D01*
X32490000Y-19635923D02*
X32490000Y-14555923D01*
X35030000Y-12015923D02*
X36299916Y-12015923D01*
D23*
X36299916Y-12015923D02*
X36300014Y-12016021D01*
%TO.N,+3V3*%
X29950000Y-20905923D02*
X31220000Y-22175923D01*
X31220000Y-22175923D02*
X31220000Y-40807243D01*
X28680000Y-20905923D02*
X29950000Y-20905923D01*
X15945000Y-18350923D02*
X17235000Y-18350923D01*
X17235000Y-18350923D02*
X18520000Y-19635923D01*
X18520000Y-19635923D02*
X22330000Y-15825923D01*
X26140000Y-17095923D02*
X26140000Y-19635923D01*
X27410000Y-20905923D02*
X28680000Y-20905923D01*
X22330000Y-15825923D02*
X24870000Y-15825923D01*
X24870000Y-15825923D02*
X26140000Y-17095923D01*
X18520000Y-42495923D02*
X18520000Y-19635923D01*
X26140000Y-19635923D02*
X27410000Y-20905923D01*
X33760000Y-56465923D02*
X35030000Y-56465923D01*
X31220000Y-43765923D02*
X31220000Y-40807243D01*
X35030000Y-56465923D02*
X36300000Y-55195923D01*
X35448680Y-43765923D02*
X31220000Y-43765923D01*
X36300000Y-55195923D02*
X36300000Y-44617243D01*
X36300000Y-44617243D02*
X35448680Y-43765923D01*
X31220000Y-40807243D02*
X32720000Y-39307243D01*
X32720000Y-39307243D02*
X36541320Y-39307243D01*
X36541320Y-39307243D02*
X38460000Y-41225923D01*
%TO.N,GND*%
X4530000Y-31065923D02*
X6860000Y-28735923D01*
X22345000Y-18350923D02*
X21060000Y-19635923D01*
X26140000Y-55195923D02*
X27410000Y-53925923D01*
X6860000Y-17325923D02*
X8360000Y-15825923D01*
X8360000Y-15825923D02*
X10900000Y-15825923D01*
X26140000Y-42495923D02*
X26140000Y-55195923D01*
X27410000Y-53925923D02*
X28680000Y-53925923D01*
X26140000Y-61545923D02*
X26140000Y-55195923D01*
X31220000Y-61545923D02*
X26140000Y-61545923D01*
X21060000Y-37415923D02*
X26140000Y-42495923D01*
X33760000Y-59005923D02*
X31220000Y-61545923D01*
X23565000Y-18350923D02*
X22345000Y-18350923D01*
X21060000Y-19635923D02*
X21060000Y-37415923D01*
X6860000Y-28735923D02*
X6860000Y-17325923D01*
%TO.N,/PWM*%
X8360000Y-36145923D02*
X8360000Y-19635923D01*
X9630000Y-18365923D02*
X10900000Y-18365923D01*
X4530000Y-38685923D02*
X5820000Y-38685923D01*
X5820000Y-38685923D02*
X8360000Y-36145923D01*
X8360000Y-19635923D02*
X9630000Y-18365923D01*
%TO.N,/TACH*%
X9630000Y-59005923D02*
X8360000Y-57735923D01*
X8360000Y-57735923D02*
X8360000Y-46305923D01*
X3280000Y-36145923D02*
X4530000Y-36145923D01*
X10900000Y-59005923D02*
X17250000Y-59005923D01*
X17250000Y-59005923D02*
X18520000Y-57735923D01*
X10900000Y-59005923D02*
X9630000Y-59005923D01*
X2010000Y-39955923D02*
X2010000Y-37415923D01*
X8360000Y-46305923D02*
X2010000Y-39955923D01*
X2010000Y-37415923D02*
X3280000Y-36145923D01*
%TO.N,/SDO*%
X29950000Y-59005923D02*
X28680000Y-59005923D01*
X33417616Y-53925923D02*
X31220000Y-56123539D01*
X33760000Y-53925923D02*
X33417616Y-53925923D01*
X31220000Y-57735923D02*
X29950000Y-59005923D01*
X31220000Y-56123539D02*
X31220000Y-57735923D01*
%TO.N,/CSB*%
X31220000Y-54002219D02*
X31220000Y-52655923D01*
X32490000Y-51385923D02*
X33760000Y-51385923D01*
X28680000Y-56465923D02*
X28756296Y-56465923D01*
X31220000Y-52655923D02*
X32490000Y-51385923D01*
X28756296Y-56465923D02*
X31220000Y-54002219D01*
%TO.N,/SCL*%
X28680000Y-51385923D02*
X28756296Y-51385923D01*
X28756296Y-51385923D02*
X31296296Y-48845923D01*
X31296296Y-48845923D02*
X33760000Y-48845923D01*
%TO.N,/SDA*%
X28680000Y-48845923D02*
X28756296Y-48845923D01*
X31296296Y-46305923D02*
X33760000Y-46305923D01*
X28756296Y-48845923D02*
X31296296Y-46305923D01*
%TO.N,/HEATER_EN*%
X26140000Y-38685923D02*
X28680000Y-38685923D01*
X23585000Y-36130923D02*
X26140000Y-38685923D01*
X23565000Y-36130923D02*
X23585000Y-36130923D01*
%TO.N,VBUS*%
X5360000Y-16285923D02*
X8360000Y-13285923D01*
X8360000Y-8205923D02*
X26140000Y-8205923D01*
X4530000Y-33605923D02*
X3280000Y-33605923D01*
X8360000Y-13285923D02*
X8360000Y-8205923D01*
X5360000Y-27003156D02*
X5360000Y-16285923D01*
X2010000Y-30353156D02*
X5360000Y-27003156D01*
X2010000Y-32335923D02*
X2010000Y-30353156D01*
X3280000Y-33605923D02*
X2010000Y-32335923D01*
X26140000Y-8205923D02*
X28680000Y-10745923D01*
%TO.N,Net-(K1-Pad1)*%
X15945000Y-47540923D02*
X24640000Y-56235923D01*
X15945000Y-36130923D02*
X15945000Y-47540923D01*
X37800000Y-58665923D02*
X37800000Y-43995923D01*
X37800000Y-43995923D02*
X35030000Y-41225923D01*
X33420000Y-63045923D02*
X37800000Y-58665923D01*
X35030000Y-41225923D02*
X33760000Y-41225923D01*
X24640000Y-56235923D02*
X24640000Y-62167243D01*
X24640000Y-62167243D02*
X25518680Y-63045923D01*
X25518680Y-63045923D02*
X33420000Y-63045923D01*
%TD*%
M02*
